<svg width="417" height="320" viewBox="0 0 417 320" fill="none" xmlns="http://www.w3.org/2000/svg">
<path d="M96.018 221.459L128.304 170.752L55.999 124.833L18.6591 183.478L78.464 221.459H96.018Z" fill="#F0F0F0"/>
<path d="M141.77 237.277H61.797V221.199H141.77V237.277ZM62.8356 236.24H140.731V222.237H62.8356V236.24Z" fill="#3F3D56"/>
<path d="M131.903 234.425C134.771 234.425 137.096 232.103 137.096 229.238C137.096 226.374 134.771 224.052 131.903 224.052C129.035 224.052 126.71 226.374 126.71 229.238C126.71 232.103 129.035 234.425 131.903 234.425Z" fill="#0C3C5E"/>
<path d="M117.362 234.425C120.23 234.425 122.555 232.103 122.555 229.238C122.555 226.374 120.23 224.052 117.362 224.052C114.494 224.052 112.169 226.374 112.169 229.238C112.169 232.103 114.494 234.425 117.362 234.425Z" fill="#0C3C5E"/>
<path d="M102.822 234.425C105.69 234.425 108.015 232.103 108.015 229.238C108.015 226.374 105.69 224.052 102.822 224.052C99.9539 224.052 97.6289 226.374 97.6289 229.238C97.6289 232.103 99.9539 234.425 102.822 234.425Z" fill="#0C3C5E"/>
<path d="M88.2814 234.425C91.1495 234.425 93.4745 232.103 93.4745 229.238C93.4745 226.374 91.1495 224.052 88.2814 224.052C85.4134 224.052 83.0884 226.374 83.0884 229.238C83.0884 232.103 85.4134 234.425 88.2814 234.425Z" fill="#0C3C5E"/>
<path d="M73.741 234.425C76.609 234.425 78.934 232.103 78.934 229.238C78.934 226.374 76.609 224.052 73.741 224.052C70.8729 224.052 68.5479 226.374 68.5479 229.238C68.5479 232.103 70.8729 234.425 73.741 234.425Z" fill="#0C3C5E"/>
<path d="M236.802 58.6062V19.1896H256.535V0H159.945V96.4668H242.514V87.035C242.514 85.2768 242.861 83.5359 243.535 81.9115C244.208 80.2872 245.196 78.8113 246.441 77.568C247.686 76.3248 249.163 75.3386 250.79 74.6658C252.416 73.993 254.159 73.6467 255.92 73.6467H256.535V58.6062H236.802Z" fill="#F0F0F0"/>
<path d="M343.778 248.947H279.385V262.431H343.778V248.947Z" fill="#0C3C5E"/>
<path d="M357.799 182.561H263.286V195.008H357.799V182.561Z" fill="#F0F0F0"/>
<path d="M404.017 318.963H0V320H404.017V318.963Z" fill="#3F3D56"/>
<path d="M373.994 320H255.92C252.228 319.996 248.689 318.529 246.078 315.922C243.468 313.315 241.999 309.78 241.995 306.093V87.0351C241.999 83.348 243.468 79.8131 246.078 77.2059C248.689 74.5988 252.228 73.1322 255.92 73.128H373.994C377.686 73.1322 381.225 74.5988 383.836 77.2059C386.446 79.8131 387.915 83.348 387.919 87.0351V306.093C387.915 309.78 386.446 313.315 383.836 315.922C381.225 318.529 377.686 319.996 373.994 320ZM255.92 74.1653C252.503 74.1692 249.228 75.5264 246.812 77.9391C244.396 80.3518 243.037 83.623 243.034 87.0351V306.093C243.037 309.505 244.396 312.776 246.812 315.189C249.228 317.602 252.503 318.959 255.92 318.963H373.994C377.411 318.959 380.686 317.602 383.102 315.189C385.518 312.776 386.877 309.505 386.88 306.093V87.0351C386.877 83.623 385.518 80.3518 383.102 77.9391C380.686 75.5264 377.411 74.1692 373.994 74.1653H255.92Z" fill="#3F3D56"/>
<path d="M300.936 83.5008C300.32 83.5008 299.717 83.3183 299.205 82.9764C298.692 82.6345 298.293 82.1485 298.057 81.5798C297.821 81.0112 297.76 80.3855 297.88 79.7819C298 79.1783 298.297 78.6238 298.733 78.1886C299.168 77.7534 299.724 77.457 300.328 77.3369C300.932 77.2169 301.559 77.2785 302.128 77.514C302.698 77.7495 303.184 78.1484 303.527 78.6601C303.869 79.1719 304.052 79.7735 304.052 80.389C304.051 81.214 303.722 82.005 303.138 82.5884C302.554 83.1718 301.762 83.4999 300.936 83.5008ZM300.936 78.3144C300.525 78.3144 300.123 78.4361 299.782 78.6641C299.44 78.892 299.174 79.216 299.017 79.5951C298.86 79.9742 298.818 80.3913 298.899 80.7937C298.979 81.1961 299.177 81.5658 299.467 81.8559C299.758 82.1461 300.128 82.3436 300.531 82.4237C300.934 82.5037 301.351 82.4626 301.731 82.3056C302.11 82.1486 302.435 81.8827 302.663 81.5416C302.891 81.2004 303.013 80.7993 303.013 80.389C303.012 79.839 302.793 79.3116 302.404 78.9227C302.015 78.5338 301.487 78.315 300.936 78.3144Z" fill="#3F3D56"/>
<path d="M331.575 79.8703H308.725V80.9076H331.575V79.8703Z" fill="#3F3D56"/>
<path d="M378.572 88.1686V129.66C367.554 129.659 356.987 125.288 349.196 117.507C341.405 109.726 337.028 99.1725 337.027 88.1686H378.572Z" fill="#0C3C5E"/>
<path d="M379.091 305.997H250.823V87.6499H379.091V305.997ZM251.862 304.959H378.052V88.6872H251.862V304.959Z" fill="#3F3D56"/>
<path opacity="0.1" d="M348.452 127.066C356.196 127.066 362.473 120.797 362.473 113.063C362.473 105.329 356.196 99.06 348.452 99.06C340.708 99.06 334.431 105.329 334.431 113.063C334.431 120.797 340.708 127.066 348.452 127.066Z" fill="black"/>
<path d="M346.375 128.622C354.119 128.622 360.396 122.353 360.396 114.619C360.396 106.885 354.119 100.616 346.375 100.616C338.631 100.616 332.354 106.885 332.354 114.619C332.354 122.353 338.631 128.622 346.375 128.622Z" fill="#0C3C5E"/>
<path d="M276.269 96.4668H256.535V103.728H276.269V96.4668Z" fill="#3F3D56"/>
<path d="M287.174 165.446H267.441V172.707H287.174V165.446Z" fill="#3F3D56"/>
<path d="M362.993 192.415H267.441V178.93H362.993V192.415ZM268.479 191.378H361.954V179.968H268.479V191.378Z" fill="#3F3D56"/>
<path d="M357.799 221.977H263.286V234.425H357.799V221.977Z" fill="#F0F0F0"/>
<path d="M287.174 204.862H267.441V212.123H287.174V204.862Z" fill="#3F3D56"/>
<path d="M362.993 231.831H267.441V218.347H362.993V231.831ZM268.479 230.794H361.954V219.384H268.479V230.794Z" fill="#3F3D56"/>
<path d="M347.933 259.319H282.501V244.797H347.933V259.319ZM283.539 258.282H346.894V245.835H283.539V258.282Z" fill="#3F3D56"/>
<path d="M360.396 187.229C360.396 188.296 360.066 189.338 359.451 190.211C358.836 191.085 357.966 191.747 356.96 192.109C355.954 192.47 354.861 192.513 353.83 192.231C352.799 191.948 351.88 191.355 351.199 190.532L351.194 190.527C350.698 189.926 350.343 189.22 350.157 188.463C349.972 187.706 349.959 186.917 350.12 186.155C350.282 185.392 350.614 184.676 351.09 184.059C351.567 183.442 352.177 182.94 352.875 182.591C353.573 182.242 354.341 182.055 355.121 182.043C355.901 182.031 356.674 182.195 357.382 182.522C358.091 182.85 358.716 183.332 359.211 183.934C359.707 184.536 360.061 185.242 360.245 185.999C360.245 186 360.246 186.001 360.246 186.001C360.246 186.002 360.246 186.003 360.247 186.003C360.247 186.004 360.248 186.004 360.249 186.004C360.249 186.004 360.25 186.005 360.251 186.005C360.347 186.406 360.395 186.816 360.396 187.229Z" fill="#0C3C5E"/>
<path opacity="0.1" d="M360.396 187.229C360.396 188.296 360.066 189.338 359.451 190.211C358.836 191.085 357.966 191.747 356.96 192.109C355.954 192.47 354.861 192.513 353.83 192.231C352.799 191.948 351.88 191.355 351.199 190.532L351.194 190.527C351.098 190.126 351.049 189.715 351.049 189.303C351.049 188.235 351.379 187.194 351.994 186.32C352.608 185.447 353.478 184.784 354.484 184.423C355.49 184.061 356.583 184.019 357.615 184.301C358.646 184.583 359.564 185.176 360.245 185.999C360.245 186 360.246 186.001 360.246 186.001C360.246 186.002 360.246 186.003 360.247 186.003C360.247 186.004 360.248 186.004 360.249 186.004C360.249 186.004 360.25 186.005 360.251 186.005C360.347 186.406 360.395 186.816 360.396 187.229Z" fill="black"/>
<path d="M357.28 195.527C360.148 195.527 362.473 193.205 362.473 190.34C362.473 187.476 360.148 185.154 357.28 185.154C354.412 185.154 352.087 187.476 352.087 190.34C352.087 193.205 354.412 195.527 357.28 195.527Z" fill="#0C3C5E"/>
<path d="M360.396 226.645C360.396 227.713 360.066 228.754 359.451 229.628C358.836 230.501 357.966 231.164 356.96 231.525C355.954 231.887 354.861 231.929 353.83 231.647C352.799 231.365 351.88 230.772 351.199 229.949L351.194 229.944C350.698 229.342 350.343 228.637 350.157 227.88C349.972 227.123 349.959 226.334 350.12 225.571C350.282 224.809 350.614 224.092 351.09 223.475C351.567 222.858 352.177 222.357 352.875 222.008C353.573 221.659 354.341 221.471 355.121 221.459C355.901 221.447 356.674 221.611 357.382 221.939C358.091 222.266 358.716 222.749 359.211 223.351C359.707 223.953 360.061 224.659 360.245 225.416C360.245 225.417 360.246 225.417 360.246 225.418C360.246 225.419 360.246 225.419 360.247 225.42C360.247 225.42 360.248 225.42 360.249 225.421C360.249 225.421 360.25 225.421 360.251 225.421C360.347 225.822 360.395 226.233 360.396 226.645Z" fill="#0C3C5E"/>
<path opacity="0.1" d="M360.396 226.645C360.396 227.713 360.066 228.754 359.451 229.628C358.836 230.501 357.966 231.164 356.96 231.525C355.954 231.887 354.861 231.929 353.83 231.647C352.799 231.365 351.88 230.772 351.199 229.949L351.194 229.944C351.098 229.543 351.049 229.132 351.049 228.72C351.049 227.652 351.379 226.61 351.994 225.737C352.608 224.863 353.478 224.201 354.484 223.839C355.49 223.478 356.583 223.435 357.615 223.718C358.646 224 359.564 224.593 360.245 225.416C360.245 225.417 360.246 225.417 360.246 225.418C360.246 225.419 360.246 225.419 360.247 225.42C360.247 225.42 360.248 225.42 360.249 225.421C360.249 225.421 360.25 225.421 360.251 225.421C360.347 225.822 360.395 226.233 360.396 226.645Z" fill="black"/>
<path d="M357.28 234.943C360.148 234.943 362.473 232.621 362.473 229.757C362.473 226.893 360.148 224.57 357.28 224.57C354.412 224.57 352.087 226.893 352.087 229.757C352.087 232.621 354.412 234.943 357.28 234.943Z" fill="#0C3C5E"/>
<path d="M270.037 24.8947H243.034V51.8639H270.037V24.8947Z" fill="#F0F0F0"/>
<path d="M348.452 44.6029C347.22 44.6029 346.015 44.2379 344.99 43.554C343.965 42.8702 343.166 41.8982 342.695 40.7609C342.223 39.6237 342.1 38.3724 342.34 37.1651C342.581 35.9578 343.174 34.8489 344.046 33.9785C344.917 33.1081 346.027 32.5153 347.236 32.2752C348.445 32.035 349.698 32.1583 350.837 32.6293C351.975 33.1004 352.949 33.8981 353.633 34.9216C354.318 35.9451 354.684 37.1483 354.684 38.3793C354.682 40.0293 354.025 41.6113 352.856 42.778C351.688 43.9448 350.104 44.6011 348.452 44.6029ZM348.452 33.1929C347.425 33.1929 346.421 33.497 345.567 34.0669C344.713 34.6368 344.047 35.4468 343.654 36.3945C343.261 37.3422 343.158 38.385 343.359 39.3911C343.559 40.3971 344.054 41.3213 344.78 42.0466C345.506 42.7719 346.432 43.2659 347.439 43.466C348.446 43.6661 349.49 43.5634 350.439 43.1709C351.388 42.7783 352.199 42.1136 352.77 41.2607C353.341 40.4078 353.645 39.405 353.645 38.3793C353.644 37.0042 353.096 35.686 352.122 34.7137C351.149 33.7414 349.829 33.1944 348.452 33.1929Z" fill="#3F3D56"/>
<path d="M211.356 131.216H197.854V117.731H211.356V131.216ZM198.893 130.178H210.318V118.768H198.893V130.178Z" fill="#3F3D56"/>
<path d="M417 231.831H403.498V218.347H417V231.831ZM404.537 230.794H415.961V219.384H404.537V230.794Z" fill="#3F3D56"/>
<path d="M150.599 141.415L152.916 142.662L160.8 146.905L173.528 153.755L180.946 140.01C181.645 138.718 182.081 137.302 182.231 135.842C182.381 134.382 182.241 132.906 181.819 131.5C181.398 130.094 180.702 128.785 179.773 127.647C178.844 126.51 177.7 125.566 176.405 124.871C173.639 123.379 170.47 122.803 167.355 123.225C164.239 123.647 161.339 125.046 159.07 127.22L159.066 127.224C157.95 128.295 157.009 129.533 156.275 130.893L150.599 141.415Z" fill="#2F2E41"/>
<path d="M185.339 281.588L183.784 298.671L177.953 299.448L174.065 280.035L185.339 281.588Z" fill="#FFB8B8"/>
<path d="M176.398 299.448C176.398 299.448 183.784 295.565 185.339 298.672C185.339 298.672 184.173 307.99 188.838 309.155C193.503 310.32 195.447 318.473 188.838 319.25C182.229 320.026 177.953 317.697 175.62 317.697C173.287 317.697 175.62 309.543 175.62 309.543L176.398 299.448Z" fill="#2F2E41"/>
<path d="M138.299 281.588L139.854 298.671L145.685 299.448L149.573 280.035L138.299 281.588Z" fill="#FFB8B8"/>
<path d="M147.24 299.448C147.24 299.448 139.854 295.565 138.299 298.672C138.299 298.672 139.465 307.99 134.8 309.155C130.135 310.32 128.191 318.473 134.8 319.25C141.409 320.026 145.685 317.697 148.018 317.697C150.35 317.697 148.018 309.543 148.018 309.543L147.24 299.448Z" fill="#2F2E41"/>
<path d="M170.177 144.529C175.76 144.529 180.285 140.01 180.285 134.434C180.285 128.859 175.76 124.339 170.177 124.339C164.595 124.339 160.069 128.859 160.069 134.434C160.069 140.01 164.595 144.529 170.177 144.529Z" fill="#FFB8B8"/>
<path d="M137.91 154.236L146.074 167.049L155.793 166.272L171.732 167.437C171.732 167.437 173.237 164.432 174.465 161.508C175.138 160.048 175.655 158.522 176.009 156.954C176.398 154.236 170.955 151.518 170.955 151.518C170.955 151.518 170.741 151.479 170.383 151.394C169.909 151.281 169.178 151.095 168.377 150.823C166.57 150.21 164.396 149.169 163.957 147.635C163.18 144.918 169.011 141.035 169.011 141.035L162.013 134.434C162.013 134.434 155.797 143.058 148.247 145.022C147.809 145.138 147.365 145.229 146.917 145.294C146.894 145.298 146.875 145.302 146.851 145.306C138.687 146.471 137.91 154.236 137.91 154.236Z" fill="#FFB8B8"/>
<path d="M142.186 150.742L137.91 154.236C137.91 154.236 134.411 170.931 135.577 175.591C136.744 180.25 135.188 184.521 135.188 185.297C135.188 186.074 131.69 215.194 131.69 215.194C131.69 215.194 124.692 230.725 132.078 229.172C139.465 227.619 136.744 212.088 136.744 212.088L145.685 184.909V162.001L142.186 150.742Z" fill="#FFB8B8"/>
<path d="M172.899 153.848L176.009 156.177L177.564 188.792L189.227 216.747C189.227 216.747 197.78 230.336 192.337 230.725C186.894 231.113 183.395 216.747 183.395 216.747L172.899 189.957L171.344 163.943L172.899 153.848Z" fill="#FFB8B8"/>
<path d="M153.46 156.177C153.46 156.177 161.236 161.613 173.676 159.672C173.676 159.672 177.175 166.661 175.231 170.543C173.287 174.426 177.564 183.744 178.341 184.909C179.119 186.074 188.06 210.147 191.171 236.16C194.281 262.174 202.834 280.035 195.447 282.364C188.06 284.694 172.899 287.412 171.344 285.082C169.789 282.753 167.456 224.901 167.456 224.901L163.18 247.032C163.18 247.032 169.011 284.694 164.735 285.47C160.458 286.247 133.633 283.917 134.411 279.258C135.188 274.599 142.964 250.138 142.964 250.138C142.964 250.138 142.575 201.216 150.35 191.898C150.35 191.898 153.46 186.85 149.184 180.25C144.908 173.649 145.296 163.166 145.296 163.166C145.296 163.166 148.406 163.166 153.46 156.177Z" fill="#2F2E41"/>
<path d="M146.917 145.294L153.461 159.672L155.015 158.895L148.247 145.022L146.917 145.294Z" fill="#2F2E41"/>
<path d="M168.377 150.823L173.287 161.613L174.465 161.508L174.065 159.672L170.383 151.394C169.909 151.281 169.178 151.095 168.377 150.823Z" fill="#2F2E41"/>
<path d="M152.916 142.662C153.29 143.863 154.01 144.927 154.987 145.721C155.964 146.515 157.154 147.004 158.407 147.126C159.661 147.248 160.922 146.997 162.034 146.406C163.146 145.815 164.058 144.91 164.657 143.803C159.739 137.381 163.957 133.347 171.946 130.295C172.548 129.18 172.804 127.911 172.681 126.65C172.559 125.389 172.063 124.192 171.258 123.213C169.056 122.932 166.819 123.146 164.71 123.839C162.601 124.532 160.674 125.688 159.07 127.22L159.066 127.224L153.39 137.738C152.986 138.486 152.736 139.307 152.655 140.152C152.573 140.998 152.662 141.851 152.916 142.662Z" fill="#2F2E41"/>
<path d="M164.151 137.929C164.903 137.929 165.512 136.886 165.512 135.599C165.512 134.312 164.903 133.27 164.151 133.27C163.4 133.27 162.791 134.312 162.791 135.599C162.791 136.886 163.4 137.929 164.151 137.929Z" fill="#FFB8B8"/>
<path d="M168.206 131.798L179.893 137.086L182.035 132.365C181.666 130.639 180.893 129.025 179.78 127.655L171.736 124.017L168.206 131.798Z" fill="#2F2E41"/>
<path d="M196.296 235.981C199.164 235.981 201.489 233.659 201.489 230.794C201.489 227.93 199.164 225.608 196.296 225.608C193.428 225.608 191.103 227.93 191.103 230.794C191.103 233.659 193.428 235.981 196.296 235.981Z" fill="#0C3C5E"/>
<path d="M29.5777 266.812C31.452 266.812 32.9715 265.294 32.9715 263.422C32.9715 261.55 31.452 260.033 29.5777 260.033C27.7033 260.033 26.1838 261.55 26.1838 263.422C26.1838 265.294 27.7033 266.812 29.5777 266.812Z" fill="#FF6584"/>
<path d="M46.7243 281.088H45.6857V319.68H46.7243V281.088Z" fill="#3F3D56"/>
<path d="M46.2051 286.545C49.2231 286.545 51.6696 284.102 51.6696 281.088C51.6696 278.074 49.2231 275.63 46.2051 275.63C43.1871 275.63 40.7406 278.074 40.7406 281.088C40.7406 284.102 43.1871 286.545 46.2051 286.545Z" fill="#3F3D56"/>
<path d="M46.2051 304.873C46.2051 304.873 45.4245 288.105 29.4212 290.054L46.2051 304.873Z" fill="#3F3D56"/>
</svg>
